# Rhino

mtllib face1.mtl
usemtl Custom (1)
v 6.3150043487548828 22.610126495361328 -0.43373522162437439
v -1.2616415023803711 12.961361885070801 -2.5449507236480713
v -8.838287353515625 3.3125977516174316 -4.6561660766601562
v 6.9177350997924805 -9.1151113510131836 21.72679328918457
v -1.0155764818191528 -7.5285301208496094 11.604182243347168
v -8.948887825012207 -5.9419488906860352 1.4815715551376343
vt 0 0
vt 0 0.5
vt 0 1
vt 1 0
vt 1 0.5
vt 1 1
vn -0.68667435646057129 0.40747979283332825 0.60202866792678833
vn -0.68667435646057129 0.40747979283332825 0.60202866792678833
vn -0.68667435646057129 0.40747979283332825 0.60202866792678833
vn -0.68667435646057129 0.40747979283332825 0.60202866792678833
vn -0.68667435646057129 0.40747979283332825 0.60202866792678833
vn -0.68667435646057129 0.40747979283332825 0.60202866792678833
f 5/5/5 4/4/4 1/1/1 2/2/2
f 6/6/6 5/5/5 2/2/2 3/3/3
